<?xml version="1.0" encoding="UTF-8"?>
<svg xmlns="http://www.w3.org/2000/svg" xmlns:xlink="http://www.w3.org/1999/xlink" width="32px" height="32px" viewBox="0 0 32 32" version="1.1">
<defs>
<clipPath id="clip1">
  <path d="M 25.351562 32 L 6.648438 32 C 3 32 0 29 0 25.351562 L 0 6.648438 C 0 3 3 0 6.648438 0 L 25.101562 0 C 28.898438 0 32 3.101562 32 6.898438 L 32 25.351562 C 32 29 29 32 25.351562 32 Z M 25.351562 32 "/>
</clipPath>
<clipPath id="clip2">
  <path d="M 21 21 L 32 21 L 32 32 L 21 32 Z M 21 21 "/>
</clipPath>
<clipPath id="clip3">
  <path d="M 25.351562 32 L 6.648438 32 C 3 32 0 29 0 25.351562 L 0 6.648438 C 0 3 3 0 6.648438 0 L 25.101562 0 C 28.898438 0 32 3.101562 32 6.898438 L 32 25.351562 C 32 29 29 32 25.351562 32 Z M 25.351562 32 "/>
</clipPath>
<clipPath id="clip4">
  <path d="M 0 0 L 11 0 L 11 11 L 0 11 Z M 0 0 "/>
</clipPath>
<clipPath id="clip5">
  <path d="M 25.351562 32 L 6.648438 32 C 3 32 0 29 0 25.351562 L 0 6.648438 C 0 3 3 0 6.648438 0 L 25.101562 0 C 28.898438 0 32 3.101562 32 6.898438 L 32 25.351562 C 32 29 29 32 25.351562 32 Z M 25.351562 32 "/>
</clipPath>
<clipPath id="clip6">
  <path d="M 21 21 L 32 21 L 32 32 L 21 32 Z M 21 21 "/>
</clipPath>
<clipPath id="clip7">
  <path d="M 25.351562 32 L 6.648438 32 C 3 32 0 29 0 25.351562 L 0 6.648438 C 0 3 3 0 6.648438 0 L 25.101562 0 C 28.898438 0 32 3.101562 32 6.898438 L 32 25.351562 C 32 29 29 32 25.351562 32 Z M 25.351562 32 "/>
</clipPath>
<clipPath id="clip8">
  <path d="M 0 21 L 11 21 L 11 32 L 0 32 Z M 0 21 "/>
</clipPath>
<clipPath id="clip9">
  <path d="M 25.351562 32 L 6.648438 32 C 3 32 0 29 0 25.351562 L 0 6.648438 C 0 3 3 0 6.648438 0 L 25.101562 0 C 28.898438 0 32 3.101562 32 6.898438 L 32 25.351562 C 32 29 29 32 25.351562 32 Z M 25.351562 32 "/>
</clipPath>
<clipPath id="clip10">
  <path d="M 0 0 L 11 0 L 11 11 L 0 11 Z M 0 0 "/>
</clipPath>
<clipPath id="clip11">
  <path d="M 25.351562 32 L 6.648438 32 C 3 32 0 29 0 25.351562 L 0 6.648438 C 0 3 3 0 6.648438 0 L 25.101562 0 C 28.898438 0 32 3.101562 32 6.898438 L 32 25.351562 C 32 29 29 32 25.351562 32 Z M 25.351562 32 "/>
</clipPath>
<clipPath id="clip12">
  <path d="M 21 0 L 32 0 L 32 11 L 21 11 Z M 21 0 "/>
</clipPath>
<clipPath id="clip13">
  <path d="M 25.351562 32 L 6.648438 32 C 3 32 0 29 0 25.351562 L 0 6.648438 C 0 3 3 0 6.648438 0 L 25.101562 0 C 28.898438 0 32 3.101562 32 6.898438 L 32 25.351562 C 32 29 29 32 25.351562 32 Z M 25.351562 32 "/>
</clipPath>
<clipPath id="clip14">
  <path d="M 25.351562 32 L 6.648438 32 C 3 32 0 29 0 25.351562 L 0 6.648438 C 0 3 3 0 6.648438 0 L 25.101562 0 C 28.898438 0 32 3.101562 32 6.898438 L 32 25.351562 C 32 29 29 32 25.351562 32 Z M 25.351562 32 "/>
</clipPath>
<clipPath id="clip15">
  <path d="M 21 21 L 32 21 L 32 32 L 21 32 Z M 21 21 "/>
</clipPath>
<clipPath id="clip16">
  <path d="M 25.351562 32 L 6.648438 32 C 3 32 0 29 0 25.351562 L 0 6.648438 C 0 3 3 0 6.648438 0 L 25.101562 0 C 28.898438 0 32 3.101562 32 6.898438 L 32 25.351562 C 32 29 29 32 25.351562 32 Z M 25.351562 32 "/>
</clipPath>
<clipPath id="clip17">
  <path d="M 0 21 L 11 21 L 11 32 L 0 32 Z M 0 21 "/>
</clipPath>
<clipPath id="clip18">
  <path d="M 25.351562 32 L 6.648438 32 C 3 32 0 29 0 25.351562 L 0 6.648438 C 0 3 3 0 6.648438 0 L 25.101562 0 C 28.898438 0 32 3.101562 32 6.898438 L 32 25.351562 C 32 29 29 32 25.351562 32 Z M 25.351562 32 "/>
</clipPath>
<clipPath id="clip19">
  <path d="M 0 0 L 11 0 L 11 11 L 0 11 Z M 0 0 "/>
</clipPath>
<clipPath id="clip20">
  <path d="M 25.351562 32 L 6.648438 32 C 3 32 0 29 0 25.351562 L 0 6.648438 C 0 3 3 0 6.648438 0 L 25.101562 0 C 28.898438 0 32 3.101562 32 6.898438 L 32 25.351562 C 32 29 29 32 25.351562 32 Z M 25.351562 32 "/>
</clipPath>
<clipPath id="clip21">
  <path d="M 21 0 L 32 0 L 32 11 L 21 11 Z M 21 0 "/>
</clipPath>
<clipPath id="clip22">
  <path d="M 25.351562 32 L 6.648438 32 C 3 32 0 29 0 25.351562 L 0 6.648438 C 0 3 3 0 6.648438 0 L 25.101562 0 C 28.898438 0 32 3.101562 32 6.898438 L 32 25.351562 C 32 29 29 32 25.351562 32 Z M 25.351562 32 "/>
</clipPath>
</defs>
<g id="surface1">
<g clip-path="url(#clip1)" clip-rule="nonzero">
<path style=" stroke:none;fill-rule:nonzero;fill:rgb(100%,100%,100%);fill-opacity:1;" d="M -8 0 L 40 0 L 40 31.949219 L -8 31.949219 Z M -8 0 "/>
</g>
<g clip-path="url(#clip2)" clip-rule="nonzero">
<g clip-path="url(#clip3)" clip-rule="nonzero">
<path style=" stroke:none;fill-rule:nonzero;fill:rgb(100%,100%,100%);fill-opacity:1;" d="M 21.148438 21.5 L 40 31.949219 L 40 29 L 26.550781 21.5 Z M 21.148438 21.5 "/>
</g>
</g>
<g clip-path="url(#clip4)" clip-rule="nonzero">
<g clip-path="url(#clip5)" clip-rule="nonzero">
<path style=" stroke:none;fill-rule:nonzero;fill:rgb(100%,100%,100%);fill-opacity:1;" d="M 10.75 10.398438 L -8 0 L -8 2.949219 L 5.449219 10.398438 Z M 10.75 10.398438 "/>
</g>
</g>
<g clip-path="url(#clip6)" clip-rule="nonzero">
<g clip-path="url(#clip7)" clip-rule="nonzero">
<path style=" stroke:none;fill-rule:nonzero;fill:rgb(0%,32.156863%,70.588235%);fill-opacity:1;" d="M 28.851562 21.5 L 40 27.648438 L 40 21.5 Z M 21.148438 21.5 L 40 31.949219 L 40 29 L 26.550781 21.5 Z M 34.898438 31.949219 L 21.148438 24.300781 L 21.148438 31.949219 Z M 34.898438 31.949219 "/>
</g>
</g>
<g clip-path="url(#clip8)" clip-rule="nonzero">
<g clip-path="url(#clip9)" clip-rule="nonzero">
<path style=" stroke:none;fill-rule:nonzero;fill:rgb(0%,32.156863%,70.588235%);fill-opacity:1;" d="M 0.449219 21.5 L -8 26.199219 L -8 21.5 Z M 10.75 22.851562 L 10.75 31.949219 L -5.601562 31.949219 Z M 10.75 22.851562 "/>
</g>
</g>
<g clip-path="url(#clip10)" clip-rule="nonzero">
<g clip-path="url(#clip11)" clip-rule="nonzero">
<path style=" stroke:none;fill-rule:nonzero;fill:rgb(0%,32.156863%,70.588235%);fill-opacity:1;" d="M 3.050781 10.398438 L -8 4.25 L -8 10.398438 Z M 10.75 10.398438 L -8 0 L -8 2.949219 L 5.449219 10.398438 Z M -3 0 L 10.75 7.648438 L 10.75 0 Z M -3 0 "/>
</g>
</g>
<g clip-path="url(#clip12)" clip-rule="nonzero">
<g clip-path="url(#clip13)" clip-rule="nonzero">
<path style=" stroke:none;fill-rule:nonzero;fill:rgb(0%,32.156863%,70.588235%);fill-opacity:1;" d="M 31.449219 10.398438 L 40 5.699219 L 40 10.398438 Z M 21.148438 9.101562 L 21.148438 0 L 37.5 0 Z M 21.148438 9.101562 "/>
</g>
</g>
<g clip-path="url(#clip14)" clip-rule="nonzero">
<path style=" stroke:none;fill-rule:nonzero;fill:rgb(84.705882%,0%,15.294118%);fill-opacity:1;" d="M 18.949219 0 L 12.949219 0 L 12.949219 13 L -8 13 L -8 18.949219 L 12.949219 18.949219 L 12.949219 31.949219 L 18.949219 31.949219 L 18.949219 18.949219 L 39.898438 18.949219 L 39.898438 13 L 18.949219 13 Z M 18.949219 0 "/>
</g>
<g clip-path="url(#clip15)" clip-rule="nonzero">
<g clip-path="url(#clip16)" clip-rule="nonzero">
<path style=" stroke:none;fill-rule:nonzero;fill:rgb(84.705882%,0%,15.294118%);fill-opacity:1;" d="M 21.148438 21.5 L 40 31.949219 L 40 29 L 26.550781 21.5 Z M 21.148438 21.5 "/>
</g>
</g>
<g clip-path="url(#clip17)" clip-rule="nonzero">
<g clip-path="url(#clip18)" clip-rule="nonzero">
<path style=" stroke:none;fill-rule:nonzero;fill:rgb(84.705882%,0%,15.294118%);fill-opacity:1;" d="M 5.449219 21.5 L -8 29 L -8 31.949219 L 10.75 21.5 Z M 5.449219 21.5 "/>
</g>
</g>
<g clip-path="url(#clip19)" clip-rule="nonzero">
<g clip-path="url(#clip20)" clip-rule="nonzero">
<path style=" stroke:none;fill-rule:nonzero;fill:rgb(84.705882%,0%,15.294118%);fill-opacity:1;" d="M 10.75 10.398438 L -8 0 L -8 2.949219 L 5.449219 10.398438 Z M 10.75 10.398438 "/>
</g>
</g>
<g clip-path="url(#clip21)" clip-rule="nonzero">
<g clip-path="url(#clip22)" clip-rule="nonzero">
<path style=" stroke:none;fill-rule:nonzero;fill:rgb(84.705882%,0%,15.294118%);fill-opacity:1;" d="M 26.449219 10.398438 L 40 2.949219 L 40 0 L 21.148438 10.398438 Z M 26.449219 10.398438 "/>
</g>
</g>
</g>
</svg>
